<svg width="823" height="662" viewBox="0 0 823 662" fill="none" xmlns="http://www.w3.org/2000/svg">
<g clip-path="url(#clip0)">
<path d="M581.029 192.684C581.029 192.684 569.09 187.96 531.126 204.947C493.163 221.934 488.394 219.766 478.585 217.168C468.776 214.57 463.311 213.958 452.738 199.792C452.738 199.792 445.305 160.505 438.118 154.416C430.931 148.326 400.358 157.882 400.358 157.882C400.358 157.882 363.709 166.082 356.726 118.323C356.726 118.323 361.681 82.3213 354.936 71.2751C354.936 71.2751 368.512 77.0092 391.032 67.7585C413.553 58.5078 431.499 77.6877 431.499 77.6877C431.499 77.6877 437.167 92.0023 436.59 100.533C436.013 109.064 439.586 112.266 450.311 108.145C450.311 108.145 455.572 100.839 448.114 88.767C440.655 76.6947 435.335 67.6923 437.422 58.3175C439.509 48.9426 445.483 35.9768 464.711 29.4401C483.939 22.9033 510.057 21.6787 522.598 16.59C535.14 11.5013 538.169 8.19159 538.169 8.19159C538.169 8.19159 530.439 15.7543 548.64 47.7015C566.841 79.6487 555.233 93.5247 555.233 93.5247C555.233 93.5247 545.56 115.998 502.878 114.211C502.878 114.211 461.75 115.675 484.211 132.687C484.211 132.687 498.576 129.832 520.044 123.18C541.512 116.527 557.015 143.99 560.859 163.104C564.703 182.217 581.029 192.684 581.029 192.684Z" fill="#53678D"/>
<path d="M525.729 32.4436L525.958 32.3857C527.604 38.4839 509.216 63.0007 493.51 82.4702L493.323 82.3295C515.496 54.8505 527.01 37.1352 525.729 32.4436Z" fill="#444053"/>
<path d="M493.655 81.9241L493.748 82.1724C481.198 97.7364 465.416 116.304 452.781 130.056C451.576 131.372 450.38 132.745 449.226 134.152L448.869 133.862C450.023 132.455 451.228 131.074 452.433 129.725C465.059 116.014 481.114 97.4799 493.655 81.9241Z" fill="#444053"/>
<path d="M449.174 133.498L449.42 133.912C426.425 161.904 424.906 205.369 424.813 205.749L419.959 200.288C420.061 199.908 426.018 161.68 449.174 133.498Z" fill="#444053"/>
<path d="M554.36 177.501C554.36 177.501 527.206 163.757 506.12 168.689C485.034 173.62 437.388 151.263 437.388 151.263C437.388 151.263 417.184 143.253 413.128 134.135C413.128 134.135 399.272 119.854 398.483 112.456C397.694 105.059 384.202 86.475 375.402 85.7551" stroke="#444053" stroke-miterlimit="10"/>
<path d="M550.44 190.732C550.44 190.732 536.762 181.762 538.374 171.312" stroke="#444053" stroke-miterlimit="10"/>
<path d="M529.489 202.324C529.489 202.324 509.973 195.407 508.004 168.308" stroke="#444053" stroke-miterlimit="10"/>
<path d="M497.983 209.34C497.983 209.34 479.315 194.24 485.517 167.861" stroke="#444053" stroke-miterlimit="10"/>
<path d="M460.121 201.96C460.121 201.96 447.69 176.549 458.746 160.017" stroke="#444053" stroke-miterlimit="10"/>
<path d="M554.682 160.754C554.682 160.754 540.554 165.122 543.583 172.338" stroke="#444053" stroke-miterlimit="10"/>
<path d="M537.609 135.757C537.609 135.757 518.712 141.607 518.263 167.671" stroke="#444053" stroke-miterlimit="10"/>
<path d="M511.304 129.741C511.304 129.741 494.113 150.427 495.377 169.251" stroke="#444053" stroke-miterlimit="10"/>
<path d="M481.165 137.859C481.165 137.859 464.084 153.778 466.265 162.64" stroke="#444053" stroke-miterlimit="10"/>
<path d="M470.864 132.232C470.864 132.232 454.844 135.037 452.604 129.907" stroke="#444053" stroke-miterlimit="10"/>
<path d="M450.049 113.375C450.049 113.375 458.144 123.825 460.231 121.484" stroke="#444053" stroke-miterlimit="10"/>
<path d="M530.278 106.764C530.278 106.764 489.904 109.602 480.757 97.7529" stroke="#444053" stroke-miterlimit="10"/>
<path d="M441.556 60.7087C441.556 60.7087 460.504 100.368 474.258 105.39" stroke="#444053" stroke-miterlimit="10"/>
<path d="M461.428 41.8185C461.428 41.8185 473.07 78.3 487.486 89.6854" stroke="#444053" stroke-miterlimit="10"/>
<path d="M547.274 76.6616C547.274 76.6616 516.566 89.5117 498.127 76.5127" stroke="#444053" stroke-width="0.75" stroke-miterlimit="10"/>
<path d="M488.785 34.0406C488.785 34.0406 495.803 60.8577 505.255 67.3365" stroke="#444053" stroke-width="0.75" stroke-miterlimit="10"/>
<path d="M542.633 46.6259C542.633 46.6259 525.383 52.9971 518.934 48.1152" stroke="#444053" stroke-width="0.75" stroke-miterlimit="10"/>
<path d="M435.267 122.137C435.267 122.137 435.267 145.512 428.742 147.176" stroke="#444053" stroke-miterlimit="10"/>
<path d="M381.919 152.421C381.919 152.421 407.833 154.589 419.789 141.549" stroke="#444053" stroke-miterlimit="10"/>
<path d="M428.58 94.5259C428.58 94.5259 422.31 118.232 405.008 124.62" stroke="#444053" stroke-miterlimit="10"/>
<path d="M366.374 127.449C366.374 127.449 384.719 133.672 400.494 117.835" stroke="#444053" stroke-miterlimit="10"/>
<path d="M408.182 74.1463C408.182 74.1463 406.485 94.2777 395.225 103.702" stroke="#444053" stroke-miterlimit="10"/>
<path d="M367.053 96.7683C367.053 96.7683 382.276 96.8758 385.839 92.0353" stroke="#444053" stroke-miterlimit="10"/>
<path opacity="0.1" d="M502.31 113.739C441.724 123.594 381.045 118.29 322.631 110.942C264.218 103.595 205.94 94.2115 145.227 96.0484C106.194 97.2399 62.7746 104.72 35.7655 127.673C9.78325 149.757 6.06665 179.95 6.31272 207.255C6.4994 227.792 8.4765 249.066 22.7405 265.581C32.6429 277.041 47.7809 285.365 59.2277 295.964C99.1091 332.851 87.798 389.994 62.5455 438.382C50.6659 461.087 36.1474 483.37 28.1796 506.645C20.2118 529.921 19.4227 554.992 34.4249 574.263C49.3082 593.369 77.7768 604.374 107.399 610.273C167.552 622.246 234.315 616.065 298.889 607.468C441.817 588.346 583.15 557.417 724.076 526.545C776.236 515.127 828.624 503.642 878.807 486.828C906.673 477.512 935.023 465.787 952.868 447.244C975.515 423.704 975.719 391.21 953.343 371.501C915.803 338.403 831.823 344.626 802.642 306.961C786.571 286.275 793.113 258.457 805.391 234.006C831.696 181.547 883.245 130.039 875.82 77.3236C870.729 41.1151 834.768 10.798 786.995 2.41611C736.931 -6.36295 672.943 8.29916 644.627 44.3008C615.471 81.469 555.802 105.051 502.31 113.739Z" fill="#53678D"/>
<path d="M860.531 124.206H75.3346C69.4813 124.206 64.7363 128.833 64.7363 134.541V559.303C64.7363 565.011 69.4813 569.638 75.3346 569.638H860.531C866.384 569.638 871.129 565.011 871.129 559.303V134.541C871.129 128.833 866.384 124.206 860.531 124.206Z" fill="url(#paint0_linear)"/>
<path d="M859.341 130.47H76.6139C70.7606 130.47 66.0156 135.097 66.0156 140.804V557.822C66.0156 563.53 70.7606 568.157 76.6139 568.157H859.341C865.194 568.157 869.939 563.53 869.939 557.822V140.804C869.939 135.097 865.194 130.47 859.341 130.47Z" fill="white"/>
<path d="M859.341 130.47H76.6139C70.7606 130.47 66.0156 135.097 66.0156 140.804V557.822C66.0156 563.53 70.7606 568.157 76.6139 568.157H859.341C865.194 568.157 869.939 563.53 869.939 557.822V140.804C869.939 135.097 865.194 130.47 859.341 130.47Z" fill="white"/>
<path opacity="0.04" d="M859.341 130.47H76.6139C70.7606 130.47 66.0156 135.097 66.0156 140.804V557.822C66.0156 563.53 70.7606 568.157 76.6139 568.157H859.341C865.194 568.157 869.939 563.53 869.939 557.822V140.804C869.939 135.097 865.194 130.47 859.341 130.47Z" fill="#5A5773"/>
<path d="M865.858 125.447H70.0639C68.9814 125.447 67.9433 125.866 67.1779 126.613C66.4124 127.359 65.9824 128.371 65.9824 129.427V146.257H869.906V129.46C869.91 128.937 869.809 128.419 869.608 127.935C869.407 127.45 869.11 127.009 868.735 126.636C868.359 126.264 867.911 125.967 867.418 125.763C866.924 125.559 866.394 125.451 865.858 125.447Z" fill="#344267"/>
<path d="M82.0702 141.226C85.1163 141.226 87.5857 138.818 87.5857 135.848C87.5857 132.878 85.1163 130.47 82.0702 130.47C79.0241 130.47 76.5547 132.878 76.5547 135.848C76.5547 138.818 79.0241 141.226 82.0702 141.226Z" fill="white"/>
<path d="M96.9208 141.226C99.9669 141.226 102.436 138.818 102.436 135.848C102.436 132.878 99.9669 130.47 96.9208 130.47C93.8746 130.47 91.4053 132.878 91.4053 135.848C91.4053 138.818 93.8746 141.226 96.9208 141.226Z" fill="white"/>
<path d="M111.769 141.226C114.816 141.226 117.285 138.818 117.285 135.848C117.285 132.878 114.816 130.47 111.769 130.47C108.723 130.47 106.254 132.878 106.254 135.848C106.254 138.818 108.723 141.226 111.769 141.226Z" fill="white"/>
<path d="M781.531 243.149H128.478C123.702 243.149 119.831 246.924 119.831 251.581V559.717C119.831 564.374 123.702 568.148 128.478 568.148H781.531C786.306 568.148 790.178 564.374 790.178 559.717V251.581C790.178 246.924 786.306 243.149 781.531 243.149Z" fill="white"/>
<path opacity="0.2" d="M280.952 168.341H94.6806C92.8717 168.341 91.4053 169.771 91.4053 171.535V184.882C91.4053 186.646 92.8717 188.075 94.6806 188.075H280.952C282.761 188.075 284.227 186.646 284.227 184.882V171.535C284.227 169.771 282.761 168.341 280.952 168.341Z" fill="#5A5773"/>
<path opacity="0.2" d="M644.551 280.872H458.279C456.47 280.872 455.004 282.302 455.004 284.066V297.412C455.004 299.176 456.47 300.606 458.279 300.606H644.551C646.36 300.606 647.826 299.176 647.826 297.412V284.066C647.826 282.302 646.36 280.872 644.551 280.872Z" fill="#53678D"/>
<path opacity="0.2" d="M752.816 336.128H458.279C456.47 336.128 455.004 337.558 455.004 339.322V352.668C455.004 354.432 456.47 355.862 458.279 355.862H752.816C754.625 355.862 756.091 354.432 756.091 352.668V339.322C756.091 337.558 754.625 336.128 752.816 336.128Z" fill="#53678D"/>
<path opacity="0.2" d="M752.816 368.398H458.279C456.47 368.398 455.004 369.828 455.004 371.592V384.938C455.004 386.702 456.47 388.132 458.279 388.132H752.816C754.625 388.132 756.091 386.702 756.091 384.938V371.592C756.091 369.828 754.625 368.398 752.816 368.398Z" fill="#53678D"/>
<path opacity="0.2" d="M752.816 400.668H458.279C456.47 400.668 455.004 402.098 455.004 403.862V417.208C455.004 418.972 456.47 420.402 458.279 420.402H752.816C754.625 420.402 756.091 418.972 756.091 417.208V403.862C756.091 402.098 754.625 400.668 752.816 400.668Z" fill="#53678D"/>
<path opacity="0.2" d="M752.816 432.938H458.279C456.47 432.938 455.004 434.368 455.004 436.132V449.478C455.004 451.242 456.47 452.672 458.279 452.672H752.816C754.625 452.672 756.091 451.242 756.091 449.478V436.132C756.091 434.368 754.625 432.938 752.816 432.938Z" fill="#53678D"/>
<path opacity="0.2" d="M752.815 468.517H159.448C157.639 468.517 156.173 469.947 156.173 471.711V485.058C156.173 486.822 157.639 488.252 159.448 488.252H752.815C754.624 488.252 756.091 486.822 756.091 485.058V471.711C756.091 469.947 754.624 468.517 752.815 468.517Z" fill="#53678D"/>
<path opacity="0.2" d="M752.815 500.787H159.448C157.639 500.787 156.173 502.217 156.173 503.981V517.327C156.173 519.091 157.639 520.521 159.448 520.521H752.815C754.624 520.521 756.091 519.091 756.091 517.327V503.981C756.091 502.217 754.624 500.787 752.815 500.787Z" fill="#53678D"/>
<path opacity="0.2" d="M752.815 533.057H159.448C157.639 533.057 156.173 534.487 156.173 536.251V549.597C156.173 551.361 157.639 552.791 159.448 552.791H752.815C754.624 552.791 756.091 551.361 756.091 549.597V536.251C756.091 534.487 754.624 533.057 752.815 533.057Z" fill="#53678D"/>
<path d="M618.84 546.106C618.84 546.106 623.872 552.518 616.515 562.208C609.158 571.897 603.1 580.072 605.552 586.112C605.552 586.112 616.642 568.124 625.679 567.909C634.716 567.693 628.776 556.92 618.84 546.106Z" fill="#53678D"/>
<path opacity="0.1" d="M618.84 546.106C619.278 546.725 619.624 547.402 619.867 548.116C628.683 558.211 633.375 567.635 624.907 567.867C617.016 568.091 607.546 581.851 605.28 585.318C605.351 585.599 605.442 585.876 605.552 586.145C605.552 586.145 616.642 568.157 625.679 567.942C634.716 567.726 628.776 556.92 618.84 546.106Z" fill="black"/>
<path d="M628.19 554.281C628.19 556.54 627.936 558.368 627.613 558.368C627.291 558.368 627.036 556.54 627.036 554.281C627.036 552.022 627.359 553.089 627.681 553.089C628.004 553.089 628.19 552.022 628.19 554.281Z" fill="#FFD037"/>
<path d="M631.407 556.978C629.37 558.054 627.597 558.708 627.444 558.434C627.291 558.161 628.819 557.061 630.838 555.952C632.858 554.843 632.069 555.654 632.221 555.952C632.374 556.25 633.435 555.894 631.407 556.978Z" fill="#FFD037"/>
<path d="M592.265 546.106C592.265 546.106 587.233 552.518 594.581 562.208C601.929 571.897 608.005 580.072 605.553 586.112C605.553 586.112 594.454 568.124 585.425 567.909C576.397 567.693 582.328 556.92 592.265 546.106Z" fill="#53678D"/>
<path opacity="0.1" d="M592.264 546.106C591.821 546.723 591.472 547.401 591.229 548.116C582.421 558.211 577.729 567.635 586.197 567.867C594.089 568.091 603.55 581.851 605.816 585.318C605.747 585.599 605.66 585.875 605.553 586.145C605.553 586.145 594.454 568.157 585.425 567.942C576.397 567.726 582.328 556.92 592.264 546.106Z" fill="black"/>
<path d="M582.905 554.281C582.905 556.54 583.168 558.368 583.491 558.368C583.813 558.368 584.068 556.54 584.068 554.281C584.068 552.022 583.745 553.106 583.431 553.106C583.117 553.106 582.905 552.022 582.905 554.281Z" fill="#FFD037"/>
<path d="M579.698 556.978C581.734 558.054 583.508 558.708 583.66 558.434C583.813 558.161 582.286 557.061 580.266 555.952C578.247 554.843 579.036 555.654 578.883 555.952C578.73 556.25 577.661 555.894 579.698 556.978Z" fill="#FFD037"/>
<path opacity="0.1" d="M605.552 635.187C634.607 635.187 658.161 631.664 658.161 627.318C658.161 622.972 634.607 619.449 605.552 619.449C576.496 619.449 552.942 622.972 552.942 627.318C552.942 631.664 576.496 635.187 605.552 635.187Z" fill="#53678D"/>
<path d="M632.647 577.465L632.392 579.468L632.044 582.298L631.891 583.481L631.544 586.311L631.391 587.494L631.034 590.315L627.012 622.502C626.647 625.374 621.836 627.616 615.981 627.616H595.09C589.278 627.616 584.475 625.374 584.119 622.502L580.08 590.34L579.732 587.519L579.579 586.335L579.222 583.506L579.078 582.322L578.722 579.493L578.467 577.49C578.272 575.835 580.877 574.495 584.161 574.495H626.944C630.228 574.47 632.833 575.835 632.647 577.465Z" fill="#344267"/>
<path d="M632.375 579.468L632.027 582.297H579.078L578.722 579.468H632.375Z" fill="#9D9CB5"/>
<path d="M631.874 583.472L631.526 586.302H579.578L579.222 583.472H631.874Z" fill="#9D9CB5"/>
<path d="M631.373 587.486L631.016 590.315H580.078L579.73 587.486H631.373Z" fill="#9D9CB5"/>
<path opacity="0.2" d="M405.219 269.925H163.385C159.402 269.925 156.173 273.074 156.173 276.958V446.201C156.173 450.086 159.402 453.235 163.385 453.235H405.219C409.203 453.235 412.432 450.086 412.432 446.201V276.958C412.432 273.074 409.203 269.925 405.219 269.925Z" fill="#53678D"/>
<path d="M954.649 473.796C954.971 472.969 952.578 468.236 952.578 468.004C952.578 467.773 950.109 465.15 950.109 463.685C950.109 462.22 946.842 459.051 946.842 459.051C946.842 459.051 942.455 457.281 941.98 453.417C941.505 449.553 936.727 449.486 936.719 449.486C936.719 449.486 936.719 449.139 936.719 448.601C936.816 447.075 936.617 445.545 936.134 444.091C935.57 443.025 934.597 442.219 933.427 441.849C933.427 441.849 932.943 438.837 931.993 437.911C931.463 437.369 931.082 436.706 930.886 435.983C930.69 435.259 930.685 434.499 930.873 433.773C931.356 432.317 930.236 428.61 927.928 428.064C925.62 427.518 922.981 426.674 922.981 426.674L922.345 426.782L922.031 426.674C921.47 426.779 920.903 426.848 920.334 426.881C919.846 426.895 919.369 426.743 918.984 426.451C918.187 425.623 911.729 423.968 910.499 423.968C909.269 423.968 905.875 422.421 905.875 422.421C905.875 422.421 903.482 420.65 902.48 419.872C901.479 419.095 899.74 416.273 899.477 415.843V415.785C899.184 415.128 898.943 414.45 898.755 413.758C899.922 412.567 900.918 411.229 901.717 409.778C901.802 409.629 901.878 409.48 901.954 409.323C902.13 409.323 902.304 409.298 902.472 409.248L902.684 409.165C903.086 408.962 903.442 408.683 903.734 408.346C904.025 408.008 904.245 407.617 904.381 407.196C904.441 407.028 904.492 406.857 904.534 406.683C904.534 406.625 904.534 406.567 904.534 406.509L904.61 406.162C904.606 406.096 904.606 406.029 904.61 405.963L904.661 405.616V405.417C904.661 405.268 904.661 405.128 904.721 404.979C904.772 404.423 904.854 403.871 904.967 403.324C905.442 401.23 906.74 399.46 907.648 397.532C907.775 397.259 907.903 396.977 908.013 396.704C908.123 396.431 908.234 396.084 908.327 395.769L908.403 395.48C908.463 395.248 908.514 395.016 908.564 394.785C908.615 394.553 908.564 394.578 908.624 394.47C908.675 394.156 908.717 393.833 908.751 393.502C908.902 391.656 908.612 389.801 907.903 388.083C907.309 386.635 906.418 385.327 905.815 383.879C904.899 381.686 904.653 379.196 903.541 377.103C902.635 375.404 901.138 374.075 899.32 373.354C897.501 372.632 895.478 372.565 893.613 373.164C891.916 373.793 890.372 375.009 888.615 375.555C886.256 376.292 883.745 375.737 881.301 375.415C878.857 375.092 876.21 375.05 874.207 376.606C871.95 378.393 871.339 381.753 869.218 383.714C868.369 384.541 867.224 385.062 866.282 385.824C865.619 386.341 865.11 387.021 864.805 387.793L864.754 387.95C864.732 388.018 864.715 388.087 864.703 388.157C864.684 388.233 864.67 388.311 864.661 388.389C864.656 388.441 864.656 388.494 864.661 388.546C864.644 388.683 864.644 388.822 864.661 388.96C864.672 389.09 864.692 389.22 864.72 389.348V389.456C864.72 389.564 864.78 389.671 864.822 389.779C864.865 389.886 864.822 389.82 864.822 389.837C864.822 389.853 864.916 390.077 864.966 390.192L865.043 390.366C865.043 390.416 865.043 390.466 865.111 390.507C865.414 391.081 865.661 391.683 865.849 392.302C865.947 392.695 865.92 393.108 865.773 393.486C865.571 393.916 865.283 394.301 864.924 394.619C863.336 396.227 862.111 398.141 861.326 400.238C861.23 400.48 861.145 400.72 861.072 400.957H861.182C861.41 401.021 861.643 401.068 861.878 401.098C862.011 401.106 862.144 401.106 862.277 401.098C862.822 401.13 863.37 401.091 863.906 400.982L864.313 400.883C864.868 400.742 865.407 400.551 865.925 400.312C865.925 400.469 865.925 400.626 865.925 400.784C865.925 400.941 865.925 400.957 865.925 401.048C865.931 404.463 866.912 407.808 868.761 410.708C870.609 413.608 873.25 415.948 876.388 417.465C876.388 417.63 876.43 417.796 876.456 417.961L876.507 418.383L876.294 418.185C876.294 418.185 874.86 417.489 873.503 419.492C872.507 420.806 871.155 421.823 869.599 422.429C869.599 422.429 855.089 424.663 854.529 426.517L847.741 426.906C847.741 426.906 845.348 427.212 845.111 432.077C844.873 436.942 843.6 437.397 843.6 437.397C843.6 437.397 840.808 442.188 841.055 444.654C841.085 445.406 840.899 446.152 840.518 446.807C840.137 447.462 839.577 448 838.899 448.361L838.585 452.763C838.585 452.763 835.955 452.374 835.191 455.386C834.887 456.981 834.208 458.485 833.206 459.78C833.206 459.78 828.819 463.338 828.581 466.341L825.866 467.996C825.866 467.996 819.57 466.606 818.135 464.14C818.135 464.14 817.966 463.975 817.694 463.735V463.677C816.752 462.849 814.758 460.996 815.064 461.418C815.251 461.805 815.296 462.243 815.191 462.659L814.724 462.154L813.469 460.797C813.469 460.797 803.286 451.497 797.346 450.761C797.27 450.612 796.88 449.106 795.861 450.057C795.018 450.812 794.344 451.729 793.881 452.75C793.418 453.771 793.177 454.874 793.171 455.99C793.165 457.106 793.396 458.211 793.849 459.236C794.302 460.261 794.967 461.184 795.802 461.947L805.34 470.627L805.586 470.801L807.631 473.366C807.283 474.193 806.994 474.955 806.782 475.666V475.741L806.629 476.188C806.611 476.236 806.597 476.286 806.587 476.336C806.536 476.485 806.494 476.626 806.451 476.767L806.375 477.015C806.375 477.065 806.375 477.114 806.375 477.164C806.146 477.942 806.001 478.537 805.933 478.868L805.399 478.703L805.917 478.926V479.001C805.917 479.108 805.917 479.166 805.917 479.166L806.409 479.373C809.2 480.556 823.133 486.522 823.846 487.424C824.559 488.326 829.905 491.363 834.691 488.889C839.476 486.415 840.503 482.642 840.503 482.642C840.503 482.642 845.128 476.386 845.289 475.459C845.45 474.533 849.031 473.457 849.031 473.457C849.031 473.457 849.353 483.792 847.52 487.581C845.688 491.371 842.26 508.11 842.26 508.11C842.485 508.079 842.713 508.079 842.938 508.11L842.735 509.078C843.015 509.027 843.303 509.027 843.583 509.078C843.329 510.981 841.886 519.835 841.886 519.835C841.886 519.835 841.411 523.848 840.613 525.238C839.816 526.628 839.765 533.884 839.765 533.884L838.484 539.13C838.484 539.13 838.653 539.494 838.967 540.032C839.826 541.818 841.077 543.397 842.633 544.658C842.531 545.482 842.314 546.29 841.988 547.057C841.493 548.23 841.275 549.497 841.352 550.764C841.352 550.764 840.002 556.705 840.155 558.401C840.308 560.097 839.307 564.268 839.307 564.268L837.873 577.697C837.873 577.697 836.922 589.347 837.397 592.516C837.625 595.002 837.517 597.505 837.075 599.963C837.075 599.963 838.034 609.148 837.796 610.149C837.559 611.15 836.362 615.478 837.075 617.869C837.788 620.26 837.397 626.822 837.397 626.822C837.397 626.822 837.873 635.468 838.433 638.248C838.732 640.353 838.677 642.491 838.271 644.578C838.271 644.578 837.711 650.519 837.474 650.519C837.236 650.519 835.166 654.607 839.383 658.62C843.6 662.633 840.987 662.012 840.987 662.012C840.987 662.012 837.593 660.357 838.034 663.717C838.407 666.869 838.933 666.05 838.984 665.959L838.187 668.499L838.747 668.574L838.288 669.112C837.808 669.714 837.268 670.268 836.676 670.767C836.055 671.358 835.686 672.156 835.641 673.001C835.641 673.001 829.744 679.256 824.245 682.417C821.351 684.072 818.857 685.487 817.771 686.661C816.786 687.704 816.922 688.548 818.984 689.21C823.286 690.6 830.864 691.295 836.277 689.516C839.521 688.47 842.44 686.64 844.763 684.196C844.763 684.196 848.157 682.491 851.551 683.112C854.945 683.732 861.598 679.488 861.598 679.488L861.47 678.395L861.123 675.235C860.898 674.97 860.732 674.663 860.636 674.332C860.54 674.002 860.515 673.655 860.562 673.315C860.604 672.38 860.51 671.444 860.283 670.535C860.223 670.229 860.164 669.923 860.104 669.641L860.715 669.525C860.715 669.525 859.926 665.595 861.36 664.817C862.794 664.04 862.387 653.937 862.387 653.937C862.387 653.937 860.562 651.62 859.604 651.239C858.645 650.859 859.519 646.059 859.688 645.447C859.858 644.835 861.123 632.862 861.123 632.862C861.123 632.862 860.639 629.089 861.275 627.467C861.912 625.845 860.478 619.59 860.478 619.59C860.345 619.303 860.313 618.983 860.385 618.676C860.457 618.37 860.629 618.095 860.876 617.894C861.725 616.967 861.437 608.709 861.437 608.709C861.437 608.709 861.36 604.572 861.36 603.455C861.36 602.338 862.31 598.441 863.193 597.133C864.075 595.826 863.507 591.73 863.507 591.73L863.558 591.424C863.558 591.308 863.558 591.159 863.626 590.986L863.694 590.572C864.083 588.311 864.604 586.073 865.255 583.87C866.29 580.634 867.487 574.925 867.487 574.925L874.894 556.076L874.979 555.853C874.979 555.853 878.373 562.025 878.373 567.743C878.373 567.743 879.222 574.611 879.018 576.464C878.815 578.318 879.57 587.03 879.57 587.03C879.57 587.03 880.605 599.533 880.605 600.071C880.605 600.609 881.886 610.256 882.684 611.729C883.482 613.202 881.886 617.67 881.403 618.134C880.919 618.597 881.564 629.941 881.564 629.941C881.564 629.941 880.367 638.894 880.13 640.747C879.892 642.601 878.933 649.7 879.731 652.48C880.529 655.26 880.206 655.641 880.206 655.641C880.206 655.641 883.083 658.504 881.403 658.736C880.793 658.866 880.219 659.121 879.719 659.485C879.218 659.849 878.803 660.312 878.501 660.845C878.199 661.377 878.017 661.966 877.967 662.573C877.918 663.18 878.001 663.79 878.212 664.362C879.211 667.187 880.384 669.95 881.725 672.637L883.049 672.363V673.282L883.142 677.882C883.142 677.882 883.702 682.276 883.38 683.286C883.151 684.014 882.828 687.472 882.676 689.285C882.616 689.946 882.582 690.385 882.582 690.385C882.582 690.385 882.582 694.472 891.432 693.24C900.283 692.007 901.869 688.606 901.869 688.606L901.937 688.184C902.065 687.406 902.353 685.751 902.591 684.825C902.905 683.592 900.045 678.031 900.045 678.031C900.045 678.031 899.57 674.25 898.772 673.406C898.437 672.906 898.217 672.342 898.127 671.751C898.06 671.437 897.992 671.114 897.941 670.8C898.14 670.823 898.339 670.856 898.535 670.899C898.535 670.899 898.051 668.202 899.892 667.349C901.734 666.497 901.242 664.726 901.004 663.957C900.766 663.187 901.717 658.86 901.717 658.86C901.582 658.429 901.57 657.97 901.682 657.533C901.794 657.095 902.026 656.696 902.353 656.378C903.473 655.294 904.347 647.731 904.347 647.731L904.508 618.556C904.508 618.556 905.068 613.384 904.432 611.299C903.796 609.214 903.159 605.201 904.033 604.117C904.907 603.033 904.11 598.027 904.11 598.027C904.11 598.027 904.11 587.452 905.306 584.788C906.502 582.124 906.104 565.567 906.104 565.567L906.418 554.686C906.418 554.686 909.023 552.286 908.412 539.792C911.186 539.618 914.351 539.519 914.793 539.9C915.641 540.595 921.327 544.145 924.678 541.902C926.062 540.975 927.391 539.972 928.658 538.899L927.249 515.731C928.098 517.021 928.658 517.874 928.658 517.874C928.658 514.638 938.068 504.138 938.068 504.138C938.068 504.138 946.834 493.1 948.743 491.793C950.652 490.486 954.403 483.519 954.403 483.519C954.957 482.195 955.597 480.907 956.32 479.663C957.203 478.347 954.335 474.64 954.649 473.796ZM934.089 481.897C931.696 482.129 926.672 487.457 926.596 488.616C926.422 489.38 926.058 490.09 925.535 490.684C925.535 490.221 925.459 489.749 925.416 489.269C924.856 482.443 924.245 474.136 924.568 473.333C925.043 471.943 924.882 465.687 924.882 465.687L924.975 465.563C926.579 470.412 931.568 476.121 931.568 476.121C931.568 476.121 932.417 478.604 933.486 478.662C934.555 478.72 934.089 481.897 934.089 481.897Z" fill="url(#paint1_linear)"/>
<path d="M806.3 480.134C806.3 480.134 809.21 465.241 818.553 465.241L825.392 478.951L820.835 482.013C820.835 482.013 810.933 482.278 806.3 480.134Z" fill="#65617D"/>
<path opacity="0.1" d="M825.392 478.91L820.835 481.971C820.835 481.971 813.869 482.186 808.888 480.995C807.999 480.803 807.132 480.526 806.3 480.168L806.351 479.928V479.878C806.776 478.011 807.367 476.184 808.116 474.417C808.404 473.747 808.727 473.06 809.083 472.373C810.449 469.808 812.375 467.284 815.023 466.043C815.993 465.565 817.052 465.284 818.137 465.216H818.553L818.705 465.522L821.013 470.156L825.392 478.91Z" fill="black"/>
<path opacity="0.1" d="M816.593 464.819C816.593 464.819 815.804 474.16 809.805 474.318C809.805 474.318 808.107 473.325 805.833 471.661L805.324 471.024C806.341 471.53 807.459 471.813 808.6 471.852C809.496 471.886 810.382 471.654 811.14 471.185C811.898 470.717 812.492 470.034 812.842 469.229C813.486 468.026 814.052 466.785 814.539 465.514C814.82 464.772 815.022 464.004 815.142 463.222L816.593 464.819Z" fill="black"/>
<path d="M813.996 481.748L812.655 480.093L808.133 474.417L805.833 471.513C806.846 472.019 807.962 472.302 809.1 472.34C809.997 472.378 810.885 472.147 811.643 471.678C812.402 471.209 812.995 470.525 813.343 469.717C813.973 468.516 814.525 467.278 814.997 466.01C815.744 463.942 815.727 462.883 815.464 462.518C815.201 462.154 817.161 463.908 818.061 464.769L818.493 465.166L818.654 465.481L821.022 469.949C821.027 470.012 821.027 470.076 821.022 470.139C821.192 471.546 821.955 480.474 813.996 481.748Z" fill="#E7EFFD"/>
<path opacity="0.1" d="M825.392 478.91L820.835 481.971C820.835 481.971 813.869 482.186 808.888 480.995L806.342 479.895L805.833 479.679L806.359 479.845C808.382 480.548 810.578 480.623 812.647 480.06C819.096 477.942 818.383 467.566 818.128 465.216C818.128 464.976 818.086 464.827 818.077 464.769V464.827C818.168 464.968 818.267 465.103 818.374 465.232L818.663 465.53L821.022 469.949C821.027 470.012 821.027 470.076 821.022 470.139L825.392 478.91Z" fill="black"/>
<path d="M841.175 448.965L838.977 449.577L838.663 453.938C838.663 453.938 836.118 453.557 835.363 456.544C835.061 458.128 834.39 459.622 833.403 460.913C833.403 460.913 829.083 464.438 828.846 467.425L826.173 469.03C826.173 469.03 819.97 467.648 818.536 465.199C818.536 465.199 821.37 484.958 806.283 480.093C806.283 480.093 823.169 487.292 823.958 488.293C824.747 489.294 829.898 492.198 834.641 489.749C839.385 487.3 840.377 483.543 840.377 483.543C840.377 483.543 844.934 477.338 845.087 476.419C845.24 475.501 848.778 474.425 848.778 474.425L855.566 458.497L841.175 448.965Z" fill="#65617D"/>
<path d="M793.818 452.184C793.926 452.184 794.013 452.099 794.013 451.993C794.013 451.888 793.926 451.803 793.818 451.803C793.71 451.803 793.623 451.888 793.623 451.993C793.623 452.099 793.71 452.184 793.818 452.184Z" fill="#E6E8EC"/>
<path d="M868.642 456.263H726.122C723.024 456.263 720.513 458.712 720.513 461.732V623.082C720.513 626.102 723.024 628.551 726.122 628.551H868.642C871.74 628.551 874.251 626.102 874.251 623.082V461.732C874.251 458.712 871.74 456.263 868.642 456.263Z" fill="white"/>
<path opacity="0.1" d="M868.642 456.263H726.122C723.024 456.263 720.513 458.712 720.513 461.732V623.082C720.513 626.102 723.024 628.551 726.122 628.551H868.642C871.74 628.551 874.251 626.102 874.251 623.082V461.732C874.251 458.712 871.74 456.263 868.642 456.263Z" fill="#5A5773"/>
<path d="M860.801 465.05H733.961C730.864 465.05 728.353 467.499 728.353 470.52V614.294C728.353 617.315 730.864 619.764 733.961 619.764H860.801C863.899 619.764 866.41 617.315 866.41 614.294V470.52C866.41 467.499 863.899 465.05 860.801 465.05Z" fill="white"/>
<path d="M838.034 496.079H753.554C750.728 496.079 748.438 498.313 748.438 501.068V522.962C748.438 525.718 750.728 527.952 753.554 527.952H838.034C840.86 527.952 843.151 525.718 843.151 522.962V501.068C843.151 498.313 840.86 496.079 838.034 496.079Z" fill="#53678D"/>
<path d="M839.681 539.61H751.916V546.114H839.681V539.61Z" fill="#53678D"/>
<path d="M857.762 553.337H736.998V559.841H857.762V553.337Z" fill="#53678D"/>
<path d="M857.762 567.784H736.998V574.288H857.762V567.784Z" fill="#53678D"/>
<path d="M857.762 582.231H736.998V588.735H857.762V582.231Z" fill="#53678D"/>
<path d="M356.387 399.311H5.60885C2.51117 399.311 0 401.759 0 404.78V566.13C0 569.15 2.51117 571.599 5.60885 571.599H356.387C359.484 571.599 361.996 569.15 361.996 566.13V404.78C361.996 401.759 359.484 399.311 356.387 399.311Z" fill="white"/>
<path opacity="0.05" d="M127.91 604.82L110.837 601.924C110.837 601.924 120.179 611.986 127.91 604.82Z" fill="black"/>
<path opacity="0.1" d="M113.959 585.698C113.959 585.698 113.11 591.59 116.768 593.973C116.734 593.956 110.158 592.69 113.959 585.698Z" fill="black"/>
<g opacity="0.05">
<path opacity="0.05" d="M143.377 607.286C143.883 608.815 144.169 610.405 144.225 612.011C143.976 610.893 143.618 609.802 143.156 608.751C143.156 608.751 143.25 608.18 143.377 607.286Z" fill="black"/>
<path opacity="0.05" d="M108.391 599.285C108.305 598.824 108.274 598.354 108.298 597.886C108.459 598.846 108.561 599.732 108.62 600.509C108.553 600.112 108.476 599.707 108.391 599.285Z" fill="black"/>
</g>
<g opacity="0.1">
<path opacity="0.1" d="M170.718 401.768C170.507 401.529 170.356 401.246 170.277 400.941C170.217 400.612 170.217 400.276 170.277 399.948C170.482 398.096 170.309 396.223 169.768 394.437L169.852 394.346C170.7 396.449 171.011 398.72 170.76 400.966C170.722 401.231 170.707 401.5 170.718 401.768Z" fill="black"/>
</g>
</g>
<defs>
<linearGradient id="paint0_linear" x1="467.937" y1="569.638" x2="467.937" y2="124.206" gradientUnits="userSpaceOnUse">
<stop stop-color="#808080" stop-opacity="0.25"/>
<stop offset="0.54" stop-color="#808080" stop-opacity="0.12"/>
<stop offset="1" stop-color="#808080" stop-opacity="0.1"/>
</linearGradient>
<linearGradient id="paint1_linear" x1="173823" y1="275102" x2="173823" y2="150768" gradientUnits="userSpaceOnUse">
<stop stop-color="#808080" stop-opacity="0.25"/>
<stop offset="0.54" stop-color="#808080" stop-opacity="0.12"/>
<stop offset="1" stop-color="#808080" stop-opacity="0.1"/>
</linearGradient>
<clipPath id="clip0">
<rect width="970" height="714" fill="white"/>
</clipPath>
</defs>
</svg>
