<svg width="15" height="15" viewBox="0 0 15 15" fill="none" xmlns="http://www.w3.org/2000/svg">
<path opacity="0.3" d="M7.5 0C3.35775 0 0 3.35775 0 7.5C0 11.6423 3.35775 15 7.5 15C11.6423 15 15 11.6423 15 7.5C15 3.35775 11.6423 0 7.5 0ZM8.25 12H6.75V10.5H8.25V12ZM8.25 8.895V9.75H6.75V8.25C6.75 8.05109 6.82902 7.86032 6.96967 7.71967C7.11032 7.57902 7.30109 7.5 7.5 7.5C8.32725 7.5 9 6.82725 9 6C9 5.17275 8.32725 4.5 7.5 4.5C6.67275 4.5 6 5.17275 6 6H4.5C4.5 4.3425 5.8425 3 7.5 3C9.1575 3 10.5 4.3425 10.5 6C10.4987 6.66365 10.2771 7.30808 9.86983 7.83208C9.46257 8.35608 8.8928 8.72996 8.25 8.895Z" fill="#344267"/>
</svg>
