<svg width="17" height="15" viewBox="0 0 17 15" fill="none" xmlns="http://www.w3.org/2000/svg">
<path d="M8.27461 3.89139L2.83356 8.97622V14.4642C2.83356 14.6063 2.88331 14.7426 2.97186 14.8431C3.06041 14.9436 3.18051 15 3.30574 15L6.61281 14.9903C6.73764 14.9896 6.85713 14.9328 6.94518 14.8324C7.03322 14.732 7.08264 14.5961 7.08264 14.4545V11.2496C7.08264 11.1075 7.13239 10.9712 7.22094 10.8707C7.30949 10.7703 7.42959 10.7138 7.55483 10.7138H9.44357C9.5688 10.7138 9.6889 10.7703 9.77745 10.8707C9.86601 10.9712 9.91576 11.1075 9.91576 11.2496V14.4522C9.91556 14.5227 9.92763 14.5925 9.95127 14.6577C9.97492 14.7229 10.0097 14.7822 10.0535 14.8321C10.0974 14.882 10.1495 14.9216 10.2069 14.9487C10.2643 14.9757 10.3258 14.9896 10.3879 14.9896L13.6938 15C13.8191 15 13.9392 14.9436 14.0277 14.8431C14.1163 14.7426 14.166 14.6063 14.166 14.4642V8.97254L8.72614 3.89139C8.66219 3.8329 8.58252 3.80101 8.50038 3.80101C8.41823 3.80101 8.33857 3.8329 8.27461 3.89139ZM16.8693 7.34747L14.4021 5.03996V0.401831C14.4021 0.295258 14.3648 0.193051 14.2984 0.117694C14.232 0.0423357 14.1419 0 14.048 0H12.3953C12.3014 0 12.2113 0.0423357 12.1449 0.117694C12.0785 0.193051 12.0412 0.295258 12.0412 0.401831V2.83324L9.39901 0.36667C9.14545 0.129918 8.82727 0.000473271 8.4989 0.000473271C8.17053 0.000473271 7.85236 0.129918 7.5988 0.36667L0.128523 7.34747C0.0926624 7.3811 0.0629937 7.42242 0.0412118 7.46907C0.0194298 7.51571 0.00596157 7.56677 0.00157656 7.61933C-0.00280846 7.67188 0.0019757 7.7249 0.0156557 7.77536C0.0293357 7.82581 0.0516433 7.87271 0.0813041 7.91338L0.83385 8.95145C0.86343 8.99226 0.899814 9.02605 0.940918 9.05088C0.982022 9.07572 1.02704 9.09111 1.07339 9.09618C1.11975 9.10125 1.16653 9.0959 1.21106 9.08043C1.25558 9.06496 1.29699 9.03968 1.33289 9.00603L8.27461 2.51847C8.33857 2.45998 8.41823 2.42808 8.50038 2.42808C8.58252 2.42808 8.66219 2.45998 8.72614 2.51847L15.6682 9.00603C15.704 9.03968 15.7453 9.06499 15.7898 9.08052C15.8343 9.09604 15.881 9.10147 15.9273 9.09649C15.9736 9.09152 16.0186 9.07623 16.0597 9.05152C16.1009 9.0268 16.1373 8.99314 16.1669 8.95245L16.9195 7.91439C16.9491 7.87348 16.9713 7.82634 16.9848 7.77566C16.9983 7.72499 17.0029 7.67178 16.9982 7.6191C16.9936 7.56641 16.9798 7.5153 16.9576 7.46868C16.9355 7.42207 16.9055 7.38087 16.8693 7.34747Z" fill="#344267"/>
</svg>
