<svg width="13" height="11" viewBox="0 0 13 11" fill="none" xmlns="http://www.w3.org/2000/svg">
<path opacity="0.7" d="M13 1.04508C12.9998 0.774803 12.8938 0.51511 12.7042 0.320581C12.5145 0.126051 12.256 0.0118316 11.983 0.00192939V0H1.11217V0.00289416C1.09332 0.00192947 1.07463 0 1.05562 0C0.837162 0.000140925 0.624124 0.0672893 0.445844 0.192197C0.267564 0.317106 0.132813 0.493629 0.0601482 0.697455C-0.0125163 0.901281 -0.0195191 1.12238 0.0401043 1.33031C0.0997276 1.53824 0.223044 1.72276 0.39307 1.85847L5.29108 6.70425L5.29092 9.69462V9.71938H5.29335C5.29746 9.81159 5.32515 9.90127 5.37384 9.98001C5.42252 10.0587 5.49062 10.124 5.57173 10.1696L5.57027 10.1721L6.84954 10.9029C6.86026 10.9103 6.87213 10.9156 6.88334 10.9222L6.88789 10.9248V10.9246C6.96947 10.9712 7.06307 11 7.16415 11C7.23706 11 7.30926 10.9858 7.37662 10.9582C7.44398 10.9306 7.50518 10.8902 7.55674 10.8392C7.60829 10.7882 7.64918 10.7276 7.67707 10.661C7.70496 10.5943 7.7193 10.5229 7.71928 10.4508C7.71928 10.4363 7.71603 10.4226 7.71506 10.4085H7.71928V6.70875L12.6623 1.81843L12.6574 1.81361C12.7654 1.71609 12.8516 1.59739 12.9106 1.46506C12.9696 1.33274 13 1.1897 13 1.04508ZM3.61497 2.09015H3.61724L3.6174 2.09257L3.61497 2.09015Z" fill="#8593AE"/>
</svg>
