<svg width="13" height="15" viewBox="0 0 13 15" fill="none" xmlns="http://www.w3.org/2000/svg">
<g opacity="0.3">
<path d="M7.82488 7.25C7.8495 7.25002 7.87359 7.24277 7.8941 7.22915C7.91462 7.21553 7.93066 7.19616 7.94021 7.17346C7.94976 7.15076 7.95239 7.12575 7.94777 7.10156C7.94315 7.07737 7.93149 7.05509 7.91425 7.0375L5.46419 4.54625C5.44678 4.52857 5.4245 4.51647 5.40019 4.5115C5.37589 4.50652 5.35064 4.50889 5.32769 4.51831C5.30473 4.52773 5.2851 4.54377 5.27128 4.56438C5.25747 4.58499 5.25011 4.60925 5.25013 4.63406V6.875C5.25013 6.97446 5.28964 7.06984 5.35996 7.14016C5.43029 7.21049 5.52568 7.25 5.62514 7.25H7.82488Z" fill="#344267"/>
<path d="M4.65636 7.84375C4.528 7.71712 4.42601 7.56631 4.35628 7.40003C4.28655 7.23375 4.25046 7.05531 4.2501 6.875V4H2.00005C1.47008 4.00157 0.962274 4.21278 0.587531 4.58752C0.212788 4.96225 0.00156637 5.47005 0 6V13C0 13.5304 0.210719 14.0391 0.5858 14.4142C0.960882 14.7893 1.4696 15 2.00005 15H6.50016C7.0306 15 7.53932 14.7893 7.9144 14.4142C8.28949 14.0391 8.50021 13.5304 8.50021 13V8.25H5.62514C5.44481 8.24974 5.26633 8.2137 5.10003 8.14397C4.93374 8.07423 4.78293 7.97219 4.65636 7.84375Z" fill="#344267"/>
<path d="M10.1252 3.25H12.325C12.3496 3.25002 12.3737 3.24277 12.3942 3.22915C12.4147 3.21553 12.4308 3.19616 12.4403 3.17346C12.4499 3.15076 12.4525 3.12575 12.4479 3.10156C12.4433 3.07737 12.4316 3.05509 12.4144 3.0375L9.9643 0.54625C9.94689 0.528571 9.92461 0.516473 9.9003 0.511498C9.87599 0.506522 9.85075 0.508894 9.8278 0.518311C9.80484 0.527729 9.7852 0.543765 9.77139 0.564378C9.75758 0.584992 9.75021 0.60925 9.75023 0.634063V2.875C9.75023 2.97446 9.78974 3.06984 9.86007 3.14016C9.9304 3.21049 10.0258 3.25 10.1252 3.25Z" fill="#344267"/>
<path d="M10.1252 4.25C9.76142 4.24722 9.41329 4.10146 9.15602 3.8442C8.89875 3.58694 8.75299 3.23881 8.75021 2.875V0H5.37513C4.87801 0.000578941 4.40143 0.198309 4.04991 0.549814C3.6984 0.901319 3.50066 1.3779 3.50008 1.875V3H4.81637C4.98438 3.00067 5.1506 3.03453 5.30548 3.09964C5.46036 3.16474 5.60086 3.25981 5.71889 3.37937L9.13022 6.84812C9.36821 7.08959 9.50109 7.41535 9.49992 7.75438V12H11.1578C12.1737 12 13 11.1587 13 10.125V4.25H10.1252Z" fill="#344267"/>
</g>
</svg>
