<svg width="12" height="11" viewBox="0 0 12 11" fill="none" xmlns="http://www.w3.org/2000/svg">
<path d="M7.63636 4.4C8.84135 4.4 9.81818 3.41503 9.81818 2.2C9.81818 0.984973 8.84135 0 7.63636 0C6.43138 0 5.45455 0.984973 5.45455 2.2C5.45455 3.41503 6.43138 4.4 7.63636 4.4Z" fill="#344267"/>
<path d="M7.76471 11C7.76471 11 12 11 12 8.06667C12 6.05 9.87273 4.95 7.63636 4.95C5.4 4.95 3.17647 6.05 3.17647 8.06667C3.17647 11 7.76471 11 7.76471 11ZM2.72727 3.3V1.65H1.63636V3.3H0V4.4H1.63636V6.05H2.72727V4.4H4.36364V3.3H2.72727Z" fill="#344267"/>
</svg>
