<svg width="207" height="152" viewBox="0 0 207 152" fill="none" xmlns="http://www.w3.org/2000/svg">
<rect opacity="0.4" x="0.5" y="0.5" width="206" height="151" rx="9.5" stroke="#53678D"/>
<path opacity="0.4" d="M40.3496 106.186C40.2767 107.361 40.0511 108.173 39.6729 108.619V108.674H44.1846V101.455H40.6504L40.3496 106.186ZM38.5928 111.948H37.1846V108.674H37.9023C38.5085 108.323 38.8503 107.471 38.9277 106.117L39.29 100.136H45.7158V108.674H46.9463V111.948H45.5449V110H38.5928V111.948ZM51.3213 110.089C50.2458 110.089 49.3913 109.747 48.7578 109.063C48.1243 108.38 47.8076 107.455 47.8076 106.288C47.8076 105.126 48.1266 104.201 48.7646 103.513C49.3981 102.825 50.2503 102.48 51.3213 102.48C52.3923 102.48 53.2445 102.822 53.8779 103.506C54.5114 104.194 54.8281 105.121 54.8281 106.288C54.8281 107.455 54.5114 108.38 53.8779 109.063C53.249 109.747 52.3968 110.089 51.3213 110.089ZM51.3213 108.858C51.9502 108.858 52.4424 108.633 52.7979 108.182C53.1488 107.73 53.3242 107.099 53.3242 106.288C53.3242 105.477 53.1488 104.846 52.7979 104.395C52.4424 103.939 51.9502 103.711 51.3213 103.711C50.6924 103.711 50.2002 103.939 49.8447 104.395C49.4893 104.85 49.3115 105.481 49.3115 106.288C49.3115 107.095 49.4893 107.726 49.8447 108.182C50.2002 108.633 50.6924 108.858 51.3213 108.858ZM59.4629 110.144C58.3008 110.144 57.4167 109.765 56.8105 109.009C56.2044 108.252 55.9014 107.14 55.9014 105.673C55.9014 103.595 56.2158 102.091 56.8447 101.161C57.4736 100.241 58.499 99.7529 59.9209 99.6982L60.5635 99.6777C61.4613 99.6367 62.1084 99.5137 62.5049 99.3086V100.539C62.2451 100.771 61.6253 100.906 60.6455 100.942L60.0098 100.963C59.0391 100.995 58.3418 101.257 57.918 101.749C57.526 102.205 57.2549 102.993 57.1045 104.114H57.1592C57.6514 103.212 58.499 102.761 59.7021 102.761C60.7048 102.761 61.5046 103.087 62.1016 103.738C62.694 104.385 62.9902 105.26 62.9902 106.363C62.9902 107.53 62.6758 108.453 62.0469 109.132C61.4134 109.806 60.5521 110.144 59.4629 110.144ZM59.4492 108.893C60.0918 108.893 60.5908 108.674 60.9463 108.236C61.3018 107.799 61.4795 107.179 61.4795 106.377C61.4795 105.616 61.3018 105.026 60.9463 104.606C60.5908 104.187 60.0918 103.978 59.4492 103.978C58.8066 103.978 58.3076 104.187 57.9521 104.606C57.5967 105.026 57.4189 105.616 57.4189 106.377C57.4189 107.179 57.5967 107.799 57.9521 108.236C58.3031 108.674 58.8021 108.893 59.4492 108.893ZM66.9072 108.893C67.4587 108.893 67.9189 108.735 68.2881 108.421C68.6572 108.102 68.8418 107.699 68.8418 107.211V106.63L67.0371 106.753C66.0117 106.817 65.499 107.181 65.499 107.847C65.499 108.166 65.6266 108.419 65.8818 108.605C66.137 108.797 66.4788 108.893 66.9072 108.893ZM66.5107 110.075C65.7679 110.075 65.1641 109.875 64.6992 109.474C64.2344 109.068 64.002 108.535 64.002 107.874C64.002 107.227 64.2458 106.719 64.7334 106.35C65.2165 105.98 65.9183 105.766 66.8389 105.707L68.8418 105.591V105.017C68.8418 104.593 68.7051 104.267 68.4316 104.039C68.1628 103.816 67.7799 103.704 67.2832 103.704C66.8822 103.704 66.5426 103.8 66.2646 103.991C65.9912 104.183 65.8226 104.44 65.7588 104.764H64.3711C64.3939 104.107 64.6833 103.563 65.2393 103.13C65.7952 102.697 66.4902 102.48 67.3242 102.48C68.2311 102.48 68.9535 102.701 69.4912 103.144C70.0335 103.586 70.3047 104.174 70.3047 104.907V110H68.8896V108.763H68.8555C68.6504 109.164 68.3359 109.483 67.9121 109.72C67.4883 109.957 67.0212 110.075 66.5107 110.075ZM73.3193 103.663V105.632H74.8027C75.6732 105.632 76.1084 105.301 76.1084 104.641C76.1084 103.989 75.7256 103.663 74.96 103.663H73.3193ZM73.3193 106.685V108.906H75.0898C75.9785 108.906 76.4229 108.539 76.4229 107.806C76.4229 107.058 75.917 106.685 74.9053 106.685H73.3193ZM71.8633 102.576H75.2471C75.9626 102.576 76.5277 102.745 76.9424 103.082C77.3525 103.419 77.5576 103.88 77.5576 104.463C77.5576 104.85 77.4368 105.197 77.1953 105.502C76.9538 105.812 76.6553 106.001 76.2998 106.069V106.124C76.7738 106.188 77.1566 106.377 77.4482 106.691C77.7399 107.01 77.8857 107.4 77.8857 107.86C77.8857 108.517 77.6533 109.036 77.1885 109.419C76.7191 109.806 76.0833 110 75.2812 110H71.8633V102.576ZM79.2598 110V102.576H80.7158V107.826H80.7705L84.3184 102.576H85.7744V110H84.3184V104.729H84.2637L80.7158 110H79.2598ZM93.0479 103.752H90.7031V110H89.2402V103.752H86.8955V102.576H93.0479V103.752ZM95.6318 106.042V108.831H96.9307C97.3773 108.831 97.735 108.703 98.0039 108.448C98.2682 108.193 98.4004 107.856 98.4004 107.437C98.4004 107.013 98.266 106.673 97.9971 106.418C97.7327 106.167 97.3773 106.042 96.9307 106.042H95.6318ZM94.1621 102.576H95.6318V104.88H97.0469C97.9082 104.88 98.5941 105.11 99.1045 105.57C99.6149 106.031 99.8701 106.653 99.8701 107.437C99.8701 108.22 99.6149 108.845 99.1045 109.31C98.5941 109.77 97.9082 110 97.0469 110H94.1621V102.576ZM109.317 103.745H106.699L106.487 106.637C106.419 107.617 106.223 108.327 105.899 108.77V108.824H109.317V103.745ZM103.685 111.948V108.824H104.286C104.778 108.514 105.065 107.765 105.147 106.575L105.421 102.576H110.78V108.824H111.942V111.948H110.575V110H105.045V111.948H103.685ZM116.167 110.089C115.091 110.089 114.237 109.747 113.604 109.063C112.97 108.38 112.653 107.455 112.653 106.288C112.653 105.126 112.972 104.201 113.61 103.513C114.244 102.825 115.096 102.48 116.167 102.48C117.238 102.48 118.09 102.822 118.724 103.506C119.357 104.194 119.674 105.121 119.674 106.288C119.674 107.455 119.357 108.38 118.724 109.063C118.095 109.747 117.243 110.089 116.167 110.089ZM116.167 108.858C116.796 108.858 117.288 108.633 117.644 108.182C117.994 107.73 118.17 107.099 118.17 106.288C118.17 105.477 117.994 104.846 117.644 104.395C117.288 103.939 116.796 103.711 116.167 103.711C115.538 103.711 115.046 103.939 114.69 104.395C114.335 104.85 114.157 105.481 114.157 106.288C114.157 107.095 114.335 107.726 114.69 108.182C115.046 108.633 115.538 108.858 116.167 108.858ZM127.385 110H125.532L122.538 106.548H122.483V110H121.014V102.576H122.483V105.769H122.538L125.498 102.576H127.262L123.953 106.069L127.385 110ZM129.101 112.7C128.854 112.7 128.654 112.687 128.499 112.659V111.456C128.59 111.479 128.747 111.49 128.971 111.49C129.326 111.49 129.606 111.408 129.812 111.244C130.021 111.076 130.19 110.795 130.317 110.403L130.434 110.021L127.74 102.576H129.333L131.24 108.646H131.274L133.182 102.576H134.74L131.958 110.342C131.639 111.23 131.272 111.846 130.857 112.188C130.447 112.529 129.862 112.7 129.101 112.7ZM135.779 110V102.576H137.625L140.052 108.072H140.106L142.547 102.576H144.338V110H142.909V104.825H142.854L140.599 109.72H139.512L137.263 104.825H137.208V110H135.779ZM149.082 103.69C148.549 103.69 148.107 103.868 147.756 104.224C147.4 104.579 147.202 105.042 147.161 105.611H150.928C150.91 105.033 150.732 104.568 150.395 104.217C150.057 103.866 149.62 103.69 149.082 103.69ZM152.336 107.826C152.231 108.492 151.882 109.036 151.29 109.46C150.698 109.879 149.984 110.089 149.15 110.089C148.075 110.089 147.223 109.749 146.594 109.07C145.969 108.396 145.657 107.478 145.657 106.315C145.657 105.153 145.969 104.224 146.594 103.526C147.218 102.829 148.05 102.48 149.089 102.48C150.11 102.48 150.919 102.811 151.516 103.472C152.113 104.128 152.411 105.019 152.411 106.145V106.664H147.154V106.753C147.154 107.396 147.339 107.91 147.708 108.298C148.077 108.69 148.567 108.886 149.178 108.886C149.611 108.886 149.984 108.79 150.299 108.599C150.613 108.407 150.821 108.15 150.921 107.826H152.336ZM158.68 106.746H155.2V110H153.73V102.576H155.2V105.57H158.68V102.576H160.149V110H158.68V106.746ZM167.423 103.752H165.078V110H163.615V103.752H161.271V102.576H167.423V103.752Z" fill="#53678D"/>
<circle opacity="0.4" cx="103.5" cy="60.5" r="24" stroke="#53678D"/>
<line opacity="0.4" x1="103.5" y1="51" x2="103.5" y2="70" stroke="#53678D"/>
<line opacity="0.4" x1="94" y1="60.5" x2="113" y2="60.5" stroke="#53678D"/>
</svg>
