<svg width="40" height="40" viewBox="0 0 40 40" fill="none" xmlns="http://www.w3.org/2000/svg">
<circle opacity="0.4" cx="20" cy="20" r="20" fill="#8593AE"/>
<mask id="mask0" mask-type="alpha" maskUnits="userSpaceOnUse" x="0" y="0" width="40" height="40">
<circle cx="20" cy="20" r="20" fill="#8593AE"/>
</mask>
<g mask="url(#mask0)">
<path d="M29.4613 30.2576C24.9741 28.623 23.5397 27.2432 23.5397 24.2888C23.5397 22.5158 25.01 21.3667 25.5111 19.8472C26.0123 18.3276 26.3022 16.5286 26.5432 15.2199C26.7842 13.9112 26.88 13.405 27.011 12.0106C27.1713 10.2704 26.0063 5.77783 19.7771 5.77783C13.5498 5.77783 12.3811 10.2704 12.5449 12.0106C12.676 13.405 12.7723 13.9113 13.0128 15.2199C13.2533 16.5285 13.5404 18.3275 14.0412 19.8472C14.5421 21.3668 16.0144 22.5158 16.0144 24.2888C16.0144 27.2432 14.58 28.623 10.0929 30.2576C5.58948 31.8959 2.66602 33.5115 2.66602 34.6528V40.0001H36.8882V34.6528C36.8882 33.5133 33.963 31.8978 29.4613 30.2576Z" fill="white"/>
</g>
</svg>
