<svg width="554" height="522" viewBox="0 0 554 522" fill="none" xmlns="http://www.w3.org/2000/svg">
<g opacity="0.15">
<g clip-path="url(#clip0)">
<path d="M463.027 153.554C463.027 153.554 453.513 149.789 423.259 163.326C393.006 176.863 389.205 175.136 381.388 173.065C373.572 170.995 369.217 170.507 360.791 159.218C360.791 159.218 354.868 127.91 349.14 123.057C343.413 118.204 319.049 125.82 319.049 125.82C319.049 125.82 289.844 132.354 284.278 94.2938C284.278 94.2938 288.227 65.6034 282.852 56.8005C282.852 56.8005 293.671 61.3701 311.617 53.998C329.564 46.626 343.866 61.9108 343.866 61.9108C343.866 61.9108 348.383 73.3184 347.923 80.1168C347.463 86.9151 350.31 89.467 358.857 86.1832C358.857 86.1832 363.05 80.3607 357.106 70.7401C351.162 61.1195 346.922 53.9453 348.586 46.4743C350.249 39.0034 355.01 28.6706 370.333 23.4614C385.655 18.2521 406.469 17.2762 416.463 13.221C426.458 9.16566 428.872 6.52808 428.872 6.52808C428.872 6.52808 422.711 12.555 437.216 38.0143C451.721 63.4736 442.47 74.5317 442.47 74.5317C442.47 74.5317 434.762 92.4409 400.748 91.0166C400.748 91.0166 367.973 92.1837 385.872 105.741C385.872 105.741 397.32 103.466 414.428 98.1644C431.536 92.8629 443.89 114.748 446.954 129.98C450.017 145.212 463.027 153.554 463.027 153.554Z" fill="#53678D"/>
<path d="M418.957 25.855L419.14 25.8088C420.452 30.6686 405.798 50.2065 393.282 65.7221L393.133 65.61C410.802 43.7115 419.978 29.5938 418.957 25.855Z" fill="#444053"/>
<path d="M393.397 65.2869L393.472 65.4847C383.471 77.8879 370.893 92.6848 360.824 103.644C359.864 104.692 358.911 105.787 357.991 106.908L357.707 106.677C358.627 105.556 359.587 104.455 360.547 103.38C370.609 92.454 383.403 77.6835 393.397 65.2869Z" fill="#444053"/>
<path d="M357.95 106.387L358.146 106.717C339.821 129.024 338.61 163.662 338.536 163.965L334.668 159.613C334.749 159.31 339.496 128.846 357.95 106.387Z" fill="#444053"/>
<path d="M441.774 141.454C441.774 141.454 420.136 130.501 403.332 134.431C386.528 138.361 348.559 120.544 348.559 120.544C348.559 120.544 332.459 114.161 329.226 106.895C329.226 106.895 318.184 95.5136 317.555 89.6186C316.926 83.7236 306.174 68.9135 299.162 68.3398" stroke="#444053" stroke-miterlimit="10"/>
<path d="M438.651 151.998C438.651 151.998 427.75 144.85 429.035 136.521" stroke="#444053" stroke-miterlimit="10"/>
<path d="M421.954 161.236C421.954 161.236 406.401 155.723 404.832 134.128" stroke="#444053" stroke-miterlimit="10"/>
<path d="M396.846 166.827C396.846 166.827 381.969 154.793 386.912 133.772" stroke="#444053" stroke-miterlimit="10"/>
<path d="M366.674 160.946C366.674 160.946 356.768 140.695 365.579 127.521" stroke="#444053" stroke-miterlimit="10"/>
<path d="M442.03 128.108C442.03 128.108 430.771 131.589 433.185 137.339" stroke="#444053" stroke-miterlimit="10"/>
<path d="M428.425 108.187C428.425 108.187 413.366 112.849 413.008 133.62" stroke="#444053" stroke-miterlimit="10"/>
<path d="M407.462 103.393C407.462 103.393 393.762 119.878 394.77 134.88" stroke="#444053" stroke-miterlimit="10"/>
<path d="M383.443 109.862C383.443 109.862 369.831 122.549 371.569 129.611" stroke="#444053" stroke-miterlimit="10"/>
<path d="M375.236 105.378C375.236 105.378 362.469 107.614 360.684 103.525" stroke="#444053" stroke-miterlimit="10"/>
<path d="M358.646 90.3506C358.646 90.3506 365.098 98.6788 366.761 96.8127" stroke="#444053" stroke-miterlimit="10"/>
<path d="M422.583 85.082C422.583 85.082 390.409 87.3437 383.119 77.9011" stroke="#444053" stroke-miterlimit="10"/>
<path d="M351.879 48.3799C351.879 48.3799 366.979 79.9848 377.94 83.9873" stroke="#444053" stroke-miterlimit="10"/>
<path d="M367.715 33.3259C367.715 33.3259 376.992 62.3987 388.481 71.472" stroke="#444053" stroke-miterlimit="10"/>
<path d="M436.127 61.0931C436.127 61.0931 411.655 71.3335 396.961 60.9744" stroke="#444053" stroke-width="0.75" stroke-miterlimit="10"/>
<path d="M389.516 27.1277C389.516 27.1277 395.108 48.4987 402.641 53.6618" stroke="#444053" stroke-width="0.75" stroke-miterlimit="10"/>
<path d="M432.428 37.157C432.428 37.157 418.68 42.2343 413.541 38.3439" stroke="#444053" stroke-width="0.75" stroke-miterlimit="10"/>
<path d="M346.868 97.3335C346.868 97.3335 346.868 115.961 341.668 117.287" stroke="#444053" stroke-miterlimit="10"/>
<path d="M304.354 121.467C304.354 121.467 325.005 123.195 334.533 112.803" stroke="#444053" stroke-miterlimit="10"/>
<path d="M341.539 75.3296C341.539 75.3296 336.542 94.2213 322.754 99.3119" stroke="#444053" stroke-miterlimit="10"/>
<path d="M291.967 101.567C291.967 101.567 306.586 106.526 319.157 93.9048" stroke="#444053" stroke-miterlimit="10"/>
<path d="M325.283 59.0886C325.283 59.0886 323.93 75.1317 314.957 82.6423" stroke="#444053" stroke-miterlimit="10"/>
<path d="M292.508 77.1165C292.508 77.1165 304.639 77.2022 307.479 73.3447" stroke="#444053" stroke-miterlimit="10"/>
<path opacity="0.1" d="M400.294 90.6407C352.013 98.4941 303.657 94.2674 257.107 88.412C210.557 82.5565 164.115 75.079 115.732 76.5428C84.6266 77.4924 50.0251 83.4533 28.5014 101.745C7.79591 119.344 4.83412 143.406 5.03022 165.166C5.17899 181.532 6.75455 198.485 18.1216 211.647C26.0129 220.779 38.0765 227.413 47.1985 235.86C78.9803 265.256 69.9664 310.794 49.8425 349.355C40.3756 367.449 28.8057 385.206 22.4561 403.755C16.1065 422.304 15.4776 442.284 27.433 457.641C39.2937 472.867 61.9804 481.637 85.5868 486.338C133.523 495.88 186.727 490.954 238.187 484.103C352.087 468.864 464.716 444.216 577.021 419.614C618.587 410.514 660.336 401.362 700.327 387.963C722.534 380.538 745.126 371.194 759.347 356.417C777.395 337.657 777.557 311.763 759.725 296.056C729.81 269.68 662.886 274.639 639.631 244.623C626.823 228.138 632.037 205.969 641.822 186.484C662.784 144.678 703.864 103.631 697.947 61.6207C693.89 32.7655 665.232 8.60518 627.162 1.92549C587.265 -5.07071 536.273 6.61381 513.707 35.3042C490.473 64.9243 442.922 83.7171 400.294 90.6407Z" fill="#53678D"/>
<path d="M685.763 98.9819H60.0337C55.3692 98.9819 51.5879 102.669 51.5879 107.218V445.719C51.5879 450.268 55.3692 453.955 60.0337 453.955H685.763C690.427 453.955 694.208 450.268 694.208 445.719V107.218C694.208 102.669 690.427 98.9819 685.763 98.9819Z" fill="url(#paint0_linear)"/>
<path d="M684.816 103.974H61.0552C56.3907 103.974 52.6094 107.661 52.6094 112.21V444.539C52.6094 449.087 56.3907 452.775 61.0552 452.775H684.816C689.481 452.775 693.262 449.087 693.262 444.539V112.21C693.262 107.661 689.481 103.974 684.816 103.974Z" fill="white"/>
<path d="M684.816 103.974H61.0552C56.3907 103.974 52.6094 107.661 52.6094 112.21V444.539C52.6094 449.087 56.3907 452.775 61.0552 452.775H684.816C689.481 452.775 693.262 449.087 693.262 444.539V112.21C693.262 107.661 689.481 103.974 684.816 103.974Z" fill="white"/>
<path opacity="0.04" d="M684.816 103.974H61.0552C56.3907 103.974 52.6094 107.661 52.6094 112.21V444.539C52.6094 449.087 56.3907 452.775 61.0552 452.775H684.816C689.481 452.775 693.262 449.087 693.262 444.539V112.21C693.262 107.661 689.481 103.974 684.816 103.974Z" fill="#5A5773"/>
<path d="M690.009 99.9712H55.8346C54.972 99.9712 54.1447 100.305 53.5347 100.9C52.9247 101.495 52.582 102.302 52.582 103.143V116.555H693.235V103.169C693.238 102.753 693.158 102.34 692.997 101.953C692.837 101.567 692.601 101.216 692.301 100.919C692.002 100.622 691.645 100.385 691.252 100.223C690.859 100.06 690.436 99.9746 690.009 99.9712Z" fill="#5A5773"/>
<path d="M65.4032 112.546C67.8306 112.546 69.7985 110.627 69.7985 108.26C69.7985 105.893 67.8306 103.974 65.4032 103.974C62.9757 103.974 61.0078 105.893 61.0078 108.26C61.0078 110.627 62.9757 112.546 65.4032 112.546Z" fill="white"/>
<path d="M77.2371 112.546C79.6646 112.546 81.6325 110.627 81.6325 108.26C81.6325 105.893 79.6646 103.974 77.2371 103.974C74.8097 103.974 72.8418 105.893 72.8418 108.26C72.8418 110.627 74.8097 112.546 77.2371 112.546Z" fill="white"/>
<path d="M89.0711 112.546C91.4986 112.546 93.4665 110.627 93.4665 108.26C93.4665 105.893 91.4986 103.974 89.0711 103.974C86.6436 103.974 84.6758 105.893 84.6758 108.26C84.6758 110.627 86.6436 112.546 89.0711 112.546Z" fill="white"/>
<path d="M622.808 193.77H102.385C98.5791 193.77 95.4941 196.779 95.4941 200.49V446.049C95.4941 449.76 98.5791 452.768 102.385 452.768H622.808C626.613 452.768 629.698 449.76 629.698 446.049V200.49C629.698 196.779 626.613 193.77 622.808 193.77Z" fill="white"/>
<path opacity="0.2" d="M223.893 134.154H75.452C74.0104 134.154 72.8418 135.294 72.8418 136.7V147.336C72.8418 148.741 74.0104 149.881 75.452 149.881H223.893C225.335 149.881 226.503 148.741 226.503 147.336V136.7C226.503 135.294 225.335 134.154 223.893 134.154Z" fill="#5A5773"/>
<path opacity="0.2" d="M513.647 223.832H365.206C363.764 223.832 362.596 224.972 362.596 226.378V237.014C362.596 238.419 363.764 239.559 365.206 239.559H513.647C515.089 239.559 516.257 238.419 516.257 237.014V226.378C516.257 224.972 515.089 223.832 513.647 223.832Z" fill="#53678D"/>
<path opacity="0.2" d="M599.924 267.867H365.206C363.764 267.867 362.596 269.006 362.596 270.412V281.048C362.596 282.454 363.764 283.593 365.206 283.593H599.924C601.366 283.593 602.534 282.454 602.534 281.048V270.412C602.534 269.006 601.366 267.867 599.924 267.867Z" fill="#53678D"/>
<path opacity="0.2" d="M599.924 293.583H365.206C363.764 293.583 362.596 294.723 362.596 296.129V306.765C362.596 308.17 363.764 309.31 365.206 309.31H599.924C601.366 309.31 602.534 308.17 602.534 306.765V296.129C602.534 294.723 601.366 293.583 599.924 293.583Z" fill="#53678D"/>
<path opacity="0.2" d="M599.924 319.3H365.206C363.764 319.3 362.596 320.439 362.596 321.845V332.481C362.596 333.887 363.764 335.026 365.206 335.026H599.924C601.366 335.026 602.534 333.887 602.534 332.481V321.845C602.534 320.439 601.366 319.3 599.924 319.3Z" fill="#53678D"/>
<path opacity="0.2" d="M599.924 345.016H365.206C363.764 345.016 362.596 346.156 362.596 347.561V358.197C362.596 359.603 363.764 360.743 365.206 360.743H599.924C601.366 360.743 602.534 359.603 602.534 358.197V347.561C602.534 346.156 601.366 345.016 599.924 345.016Z" fill="#53678D"/>
<path opacity="0.2" d="M599.924 373.37H127.065C125.624 373.37 124.455 374.51 124.455 375.916V386.552C124.455 387.957 125.624 389.097 127.065 389.097H599.924C601.365 389.097 602.534 387.957 602.534 386.552V375.916C602.534 374.51 601.365 373.37 599.924 373.37Z" fill="#53678D"/>
<path opacity="0.2" d="M599.924 399.087H127.065C125.624 399.087 124.455 400.226 124.455 401.632V412.268C124.455 413.674 125.624 414.813 127.065 414.813H599.924C601.365 414.813 602.534 413.674 602.534 412.268V401.632C602.534 400.226 601.365 399.087 599.924 399.087Z" fill="#53678D"/>
<path opacity="0.2" d="M599.924 424.803H127.065C125.624 424.803 124.455 425.943 124.455 427.348V437.984C124.455 439.39 125.624 440.53 127.065 440.53H599.924C601.365 440.53 602.534 439.39 602.534 437.984V427.348C602.534 425.943 601.365 424.803 599.924 424.803Z" fill="#53678D"/>
<path d="M493.158 435.202C493.158 435.202 497.168 440.312 491.305 448.034C485.442 455.755 480.614 462.27 482.568 467.084C482.568 467.084 491.406 452.748 498.608 452.577C505.809 452.406 501.076 443.82 493.158 435.202Z" fill="#53678D"/>
<path opacity="0.1" d="M493.159 435.202C493.508 435.695 493.784 436.235 493.978 436.804C501.003 444.849 504.743 452.359 497.994 452.544C491.705 452.722 484.159 463.688 482.354 466.451C482.41 466.675 482.483 466.895 482.57 467.11C482.57 467.11 491.408 452.775 498.61 452.603C505.811 452.432 501.078 443.82 493.159 435.202Z" fill="black"/>
<path d="M500.609 441.717C500.609 443.517 500.406 444.974 500.149 444.974C499.892 444.974 499.689 443.517 499.689 441.717C499.689 439.916 499.946 440.767 500.203 440.767C500.46 440.767 500.609 439.916 500.609 441.717Z" fill="#FFD037"/>
<path d="M503.172 443.866C501.549 444.724 500.136 445.244 500.014 445.027C499.893 444.809 501.11 443.932 502.719 443.049C504.329 442.165 503.7 442.811 503.821 443.049C503.943 443.286 504.788 443.002 503.172 443.866Z" fill="#FFD037"/>
<path d="M471.979 435.202C471.979 435.202 467.969 440.312 473.825 448.034C479.681 455.755 484.523 462.27 482.568 467.084C482.568 467.084 473.724 452.748 466.529 452.577C459.334 452.406 464.061 443.82 471.979 435.202Z" fill="#53678D"/>
<path opacity="0.1" d="M471.979 435.202C471.626 435.694 471.348 436.234 471.154 436.804C464.135 444.849 460.396 452.359 467.144 452.544C473.433 452.722 480.973 463.688 482.778 466.451C482.724 466.675 482.654 466.895 482.568 467.11C482.568 467.11 473.724 452.775 466.529 452.603C459.334 452.432 464.061 443.82 471.979 435.202Z" fill="black"/>
<path d="M464.521 441.717C464.521 443.517 464.731 444.974 464.988 444.974C465.245 444.974 465.448 443.517 465.448 441.717C465.448 439.917 465.191 440.78 464.941 440.78C464.691 440.78 464.521 439.917 464.521 441.717Z" fill="#FFD037"/>
<path d="M461.965 443.866C463.588 444.724 465.001 445.244 465.123 445.027C465.245 444.809 464.028 443.932 462.418 443.049C460.809 442.165 461.438 442.811 461.316 443.049C461.194 443.286 460.342 443.002 461.965 443.866Z" fill="#FFD037"/>
<path opacity="0.1" d="M482.569 506.193C505.724 506.193 524.494 503.385 524.494 499.922C524.494 496.458 505.724 493.651 482.569 493.651C459.415 493.651 440.645 496.458 440.645 499.922C440.645 503.385 459.415 506.193 482.569 506.193Z" fill="#53678D"/>
<path d="M504.161 460.193L503.958 461.789L503.681 464.044L503.559 464.987L503.282 467.242L503.16 468.185L502.876 470.433L499.671 496.084C499.38 498.372 495.546 500.159 490.88 500.159H474.232C469.6 500.159 465.772 498.372 465.488 496.084L462.27 470.453L461.992 468.205L461.871 467.262L461.587 465.007L461.472 464.064L461.188 461.808L460.985 460.213C460.829 458.894 462.905 457.826 465.522 457.826H499.617C502.233 457.806 504.309 458.894 504.161 460.193Z" fill="#65617D"/>
<path d="M503.944 461.789L503.667 464.044H461.471L461.188 461.789H503.944Z" fill="#9D9CB5"/>
<path d="M503.545 464.98L503.267 467.235H461.87L461.586 464.98H503.545Z" fill="#9D9CB5"/>
<path d="M503.144 468.178L502.86 470.433H462.267L461.99 468.178H503.144Z" fill="#9D9CB5"/>
<path opacity="0.2" d="M322.922 215.108H130.203C127.028 215.108 124.455 217.618 124.455 220.713V355.586C124.455 358.682 127.028 361.191 130.203 361.191H322.922C326.096 361.191 328.67 358.682 328.67 355.586V220.713C328.67 217.618 326.096 215.108 322.922 215.108Z" fill="#53678D"/>
<path d="M284.007 318.218H4.46973C2.00117 318.218 0 320.17 0 322.577V451.159C0 453.566 2.00117 455.518 4.46973 455.518H284.007C286.476 455.518 288.477 453.566 288.477 451.159V322.577C288.477 320.17 286.476 318.218 284.007 318.218Z" fill="white"/>
<path opacity="0.05" d="M101.931 481.993L88.3262 479.685C88.3262 479.685 95.7712 487.703 101.931 481.993Z" fill="black"/>
<path opacity="0.1" d="M90.8135 466.754C90.8135 466.754 90.1373 471.449 93.0518 473.348C93.0247 473.335 87.7841 472.326 90.8135 466.754Z" fill="black"/>
<g opacity="0.05">
<path opacity="0.05" d="M114.258 483.958C114.661 485.176 114.889 486.443 114.934 487.723C114.735 486.832 114.45 485.963 114.082 485.125C114.082 485.125 114.156 484.67 114.258 483.958Z" fill="black"/>
<path opacity="0.05" d="M86.3776 477.581C86.3088 477.214 86.2839 476.84 86.3032 476.467C86.4317 477.232 86.5129 477.937 86.5602 478.557C86.5061 478.241 86.4452 477.918 86.3776 477.581Z" fill="black"/>
</g>
<g opacity="0.1">
<path opacity="0.1" d="M136.046 320.177C135.879 319.986 135.758 319.761 135.695 319.517C135.647 319.256 135.647 318.988 135.695 318.726C135.858 317.25 135.72 315.758 135.289 314.334L135.357 314.262C136.032 315.937 136.28 317.748 136.08 319.537C136.049 319.749 136.038 319.963 136.046 320.177Z" fill="black"/>
</g>
</g>
</g>
<defs>
<linearGradient id="paint0_linear" x1="372.902" y1="453.955" x2="372.902" y2="98.9819" gradientUnits="userSpaceOnUse">
<stop stop-color="#808080" stop-opacity="0.25"/>
<stop offset="0.54" stop-color="#808080" stop-opacity="0.12"/>
<stop offset="1" stop-color="#808080" stop-opacity="0.1"/>
</linearGradient>
<clipPath id="clip0">
<rect width="773" height="569" fill="white"/>
</clipPath>
</defs>
</svg>
